<?xml version="1.0" encoding="UTF-8"?>
<svg width="171px" height="96px" viewBox="0 0 171 96" version="1.1" xmlns="http://www.w3.org/2000/svg" xmlns:xlink="http://www.w3.org/1999/xlink">
    <title>ct-alerts</title>
    <defs>
        <circle id="path-1" cx="143" cy="68" r="28"></circle>
        <ellipse id="path-3" cx="52" cy="52" rx="51.75" ry="52"></ellipse>
        <filter x="-9.2%" y="-14.7%" width="118.3%" height="127.5%" filterUnits="objectBoundingBox" id="filter-5">
            <feOffset dx="0" dy="0" in="SourceAlpha" result="shadowOffsetOuter1"></feOffset>
            <feGaussianBlur stdDeviation="1.5" in="shadowOffsetOuter1" result="shadowBlurOuter1"></feGaussianBlur>
            <feColorMatrix values="0 0 0 0 0   0 0 0 0 0   0 0 0 0 0  0 0 0 0.1 0" type="matrix" in="shadowBlurOuter1" result="shadowMatrixOuter1"></feColorMatrix>
            <feMerge>
                <feMergeNode in="shadowMatrixOuter1"></feMergeNode>
                <feMergeNode in="SourceGraphic"></feMergeNode>
            </feMerge>
        </filter>
        <linearGradient x1="-8.81421099%" y1="66.1019533%" x2="418.697472%" y2="-70.6245071%" id="linearGradient-6">
            <stop stop-color="#010101" stop-opacity="0" offset="0%"></stop>
            <stop stop-color="#010101" offset="100%"></stop>
        </linearGradient>
        <linearGradient x1="67.4590428%" y1="23.8054348%" x2="-27.5870544%" y2="166.507508%" id="linearGradient-7">
            <stop stop-color="#010101" stop-opacity="0" offset="0%"></stop>
            <stop stop-color="#010101" offset="100%"></stop>
        </linearGradient>
        <path d="M2.73874621,0.00928692808 L13.3242501,0.00190211869 C14.8279771,0.000853067277 16.0478392,1.21901428 16.0488882,2.72274134 C16.0488891,2.72400334 16.0488891,2.72526534 16.0488882,2.72652734 L16.0328704,25.8443418 C16.0318295,27.3465906 14.8142799,28.564146 13.3120312,28.565194 L2.72652733,28.5725788 C1.22280027,28.5736279 0.00293821149,27.3554667 0.00188916008,25.8517396 C0.00188827967,25.8504776 0.00188827667,25.8492156 0.00188915108,25.8479536 L0.0179069784,2.7301391 C0.0189478537,1.22789035 1.23649746,0.0103349482 2.73874621,0.00928692808 Z" id="path-8"></path>
        <rect id="path-10" x="0" y="0" width="170" height="37"></rect>
    </defs>
    <g id="Symbols" stroke="none" stroke-width="1" fill="none" fill-rule="evenodd">
        <g id="chart/efficacy-copy-3" transform="translate(-112.000000, -31.000000)">
            <g id="CloseContacts" transform="translate(21.000000, 18.000000)">
                <g id="ct-alerts" transform="translate(91.000000, 13.000000)">
                    <mask id="mask-2" fill="white">
                        <use xlink:href="#path-1"></use>
                    </mask>
                    <use id="Mask" fill="#DB0101" xlink:href="#path-1"></use>
                    <g id="Visual/contact-tracing" mask="url(#mask-2)">
                        <g transform="translate(91.000000, 17.000000)">
                            <ellipse id="Oval" stroke="none" fill="#3A7B7F" fill-rule="evenodd" opacity="0.297735305" cx="52" cy="52" rx="39.75" ry="39.942029"></ellipse>
                            <ellipse id="Oval" stroke="none" fill="#3A7B7F" fill-rule="evenodd" opacity="0.497465588" cx="52.375" cy="52.3768116" rx="28.125" ry="28.2608696"></ellipse>
                            <mask id="mask-4" fill="white">
                                <use xlink:href="#path-3"></use>
                            </mask>
                            <use id="Mask" stroke="none" fill="#FFE1D3" fill-rule="evenodd" xlink:href="#path-3"></use>
                            <g id="Group-4" filter="url(#filter-5)" stroke="none" stroke-width="1" fill="none" fill-rule="evenodd" mask="url(#mask-4)">
                                <g transform="translate(47.074300, 71.452488) rotate(-50.000000) translate(-47.074300, -71.452488) translate(11.574300, 45.952488)">
                                    <path d="M66.4310143,5.8468603 C65.739426,7.16345264 63.667567,7.01456969 62.7638529,8.16476345 C62.3715654,8.65812067 62.2698612,9.33247284 62.1826862,9.96303591 C61.7816812,12.9056636 61.3661471,15.8395334 60.9535188,18.7734033 C62.0838879,19.4711097 63.2578445,20.23304 63.8390111,21.4387 C64.4201778,22.6443599 64.051137,24.3579735 62.7987229,24.7987838 C61.4446046,25.2366748 60.2038138,23.9989028 58.9949872,23.2457303 C57.5856581,22.346594 55.3597899,22.2473387 54.5635916,23.7303297 C55.3597899,24.203252 56.176329,24.7082863 56.7022848,25.4818938 C57.2282407,26.2555012 57.3851556,27.3677444 56.8127065,28.1092399 C55.9758266,29.1543398 54.3398425,28.8157041 53.0990517,28.2989927 C51.8582609,27.7822813 50.3704743,27.2305386 49.2953161,28.0420966 C50.130684,28.6896681 50.8274495,29.4998672 51.3439285,30.4242238 C51.6548526,30.9642894 51.8786018,31.6590765 51.5328076,32.1757879 C51.1870135,32.6924993 50.4256852,32.6924993 49.7893077,32.5786476 C46.8486045,32.0298242 44.1839555,30.0505568 41.231629,29.9162702 C41.052624,29.904605 40.8730548,29.904605 40.6940499,29.9162702 C37.6400192,30.0067677 35.1235676,32.1757879 32.4937886,33.7492763 C32.3901868,33.815525 32.2824483,33.8750065 32.1712411,33.927352 C30.172751,35.1047196 28.0072283,35.9690288 25.7493498,36.4904741 C24.5724874,36.7619665 23.3985308,36.5692945 22.2478208,36.916688 C20.9372901,37.3107899 19.8650376,38.15446 18.8015027,39.0185649 C15.6902517,41.5723902 6.88671781,47.9656706 4.15616145,50.9423722 C3.33366235,47.7368055 1.7332094,44.2299813 0.942853025,41.725756 C0.228173116,39.4613098 0.26726518,38.2305824 0.490802632,34.9160752 C1.26084842,34.5803588 7.52977576,30.5263983 7.59660992,30.4826092 C10.6380486,28.6609826 13.6882049,26.8471407 16.7470786,25.0410835 C16.9716482,24.8866369 17.2214689,24.773006 17.4851602,24.705367 C18.3365694,24.5594033 18.9845702,25.3680421 19.4320685,26.1328917 C20.9314784,23.9405174 23.0788891,22.2093882 25.2844165,20.7497514 C27.7224105,19.1091197 30.2853554,17.6699179 32.8395828,16.219039 C35.187496,14.8820117 37.5470325,13.5566616 39.8978516,12.216715 C42.5131014,10.7570783 45.1661271,9.25073318 47.9964086,8.21731037 C50.4140618,7.34152832 52.95376,6.80146273 55.3249199,5.80015192 C57.7425731,4.79884112 59.4424855,3.84423869 62.0083362,3.41802476 C63.005037,3.26038399 64.6235861,3.04727703 65.4779011,3.56398843 C66.332216,4.08069984 66.890136,4.94480479 66.4310143,5.8468603 Z" id="Path" stroke="none" fill="#451709" fill-rule="nonzero"></path>
                                    <path d="M43.4435286,28.5068751 C43.2647136,29.2042531 42.3648703,29.4650373 41.6207691,29.5558722 C41.4304603,29.6174276 41.2738073,29.7564221 41.1881522,29.9397231 C41.0104852,29.9280145 40.8322582,29.9280145 40.6545912,29.9397231 C37.6233883,30.0305581 35.1257464,32.2076666 32.515624,33.7870226 C32.4127966,33.8535184 32.3058634,33.9132217 32.1954874,33.9657623 C31.9618743,33.2009907 31.9734107,31.0121615 33.5596729,25.9810776 C33.8480843,25.1020298 34.1711049,23.929966 34.4249069,23.0802197 C34.5729226,22.5176389 34.7899718,21.976197 35.0709482,21.468632 C36.0627272,19.908038 37.5903508,18.7779721 39.3567403,18.2981994 C39.6792545,18.1671511 40.0409738,18.1788344 40.3546435,18.3304312 C40.6892006,18.5326122 40.7324623,18.9955774 40.622866,19.3589172 C40.5132697,19.7222569 40.2767724,20.0445745 40.1556397,20.4079143 C39.6566881,21.7704384 40.7324623,23.1358928 41.565971,24.3431185 C42.254856,25.3156665 42.8252574,26.3694071 43.2647136,27.4813193 C43.4277566,27.7959907 43.4902574,28.1544509 43.4435286,28.5068751 Z" id="Path" stroke="none" fill="url(#linearGradient-6)" fill-rule="nonzero"></path>
                                    <path d="M46.6185263,0.798784723 L57.7900167,0.816107091 C59.4685178,0.818709753 60.8285637,2.17875446 60.8311678,3.85725558 L60.8728004,30.6919063 C60.8754102,32.3740961 59.5138416,33.739896 57.8316519,33.7425058 C57.8285024,33.7425107 57.825353,33.7425107 57.8222035,33.7425058 L46.6507131,33.7251835 C44.972212,33.7225808 43.6121661,32.3625361 43.609562,30.684035 L43.5679294,3.84938423 C43.5653196,2.16719448 44.9268881,0.801394556 46.6090779,0.798784727 C46.6122274,0.798779841 46.6153768,0.798779839 46.6185263,0.798784723 Z" id="Rectangle" stroke="none" fill="#2E2E2E" fill-rule="nonzero" transform="translate(52.220365, 17.270645) rotate(50.070000) translate(-52.220365, -17.270645) "></path>
                                    <path d="M46.6185263,0.798784723 L57.7900167,0.816107091 C59.4685178,0.818709753 60.8285637,2.17875446 60.8311678,3.85725558 L60.8728004,30.6919063 C60.8754102,32.3740961 59.5138416,33.739896 57.8316519,33.7425058 C57.8285024,33.7425107 57.825353,33.7425107 57.8222035,33.7425058 L46.6507131,33.7251835 C44.972212,33.7225808 43.6121661,32.3625361 43.609562,30.684035 L43.5679294,3.84938423 C43.5653196,2.16719448 44.9268881,0.801394556 46.6090779,0.798784727 C46.6122274,0.798779841 46.6153768,0.798779839 46.6185263,0.798784723 Z" id="Rectangle" stroke="#222222" stroke-width="0.75" fill="url(#linearGradient-7)" fill-rule="nonzero" transform="translate(52.220365, 17.270645) rotate(50.070000) translate(-52.220365, -17.270645) "></path>
                                    <path d="M47.1653824,2.75012463 L57.7159358,2.76648418 C59.2163641,2.76881073 60.4321222,3.98456779 60.4344501,5.48499609 L60.4700386,28.4239479 C60.4723716,29.9276735 59.2552523,31.1485752 57.7515267,31.1509082 C57.7487114,31.1509125 57.745896,31.1509125 57.7430807,31.1509082 L47.1925273,31.1345486 C45.692099,31.1322221 44.4763409,29.916465 44.474013,28.4160367 L44.4384244,5.4770849 C44.4360915,3.97335928 45.6532107,2.75245759 47.1569363,2.75012463 C47.1597517,2.75012027 47.162567,2.75012026 47.1653824,2.75012463 Z" id="Rectangle" stroke="none" fill="#FFFBFF" fill-rule="nonzero" transform="translate(52.454232, 16.950516) rotate(50.070000) translate(-52.454232, -16.950516) "></path>
                                    <g id="Group-2" stroke="none" stroke-width="1" fill="none" fill-rule="evenodd" transform="translate(52.599583, 18.104496) rotate(50.000000) translate(-52.599583, -18.104496) translate(43.599583, 3.104496)">
                                        <g id="Group" transform="translate(0.022011, 0.094156)">
                                            <mask id="mask-9" fill="white">
                                                <use xlink:href="#path-8"></use>
                                            </mask>
                                            <use id="Rectangle" fill="#FFFBFF" fill-rule="nonzero" xlink:href="#path-8"></use>
                                            <rect id="Rectangle" fill="#FFF16F" mask="url(#mask-9)" x="1.0658141e-14" y="0.306134644" width="16.0505157" height="3"></rect>
                                            <rect id="Rectangle" fill="#B4083A" mask="url(#mask-9)" x="1.57757441" y="4.30613464" width="13" height="5" rx="1"></rect>
                                        </g>
                                        <rect id="Rectangle" fill="#EEEEEF" x="1.59958522" y="10.4002911" width="13" height="5"></rect>
                                        <rect id="Rectangle" fill="#EEEEEF" x="1.59958522" y="16.4002911" width="13" height="5"></rect>
                                        <rect id="Rectangle-Copy" fill="#EEEEEF" x="1.59958522" y="22.4002911" width="13" height="4"></rect>
                                    </g>
                                    <path d="M28.1177648,18.1020473 C29.5993085,17.2439667 31.1460606,16.5025691 32.7438564,15.884644 C35.7578252,14.6378996 38.7747145,13.3853429 41.8967422,12.4495581 C42.8459087,12.1589416 43.8009163,11.9090115 44.7559238,11.6561753 L53.0122124,9.45330286 C53.272138,10.2757473 52.8937285,12.4069193 52.3943209,13.1102111 C50.8360214,15.3048451 49.2677141,15.9432792 46.7414302,16.892679 C46.0259047,17.1600461 44.5982162,17.1575439 43.9907496,17.6312487 C43.5491078,18.0256114 43.1568741,18.4715368 42.8225446,18.9593657 C40.9972244,21.284297 38.3249556,23.0541509 37.2735711,25.8121007 C36.9201891,26.7275424 36.7566404,27.7272628 36.2338687,28.5555196 C35.6497662,29.465149 34.7152023,30.0696311 33.8010819,30.6421454 C30.296467,32.847924 26.6867137,35.0769519 22.6564066,36.0999217 C22.1803462,36.2617264 21.6679409,36.2859108 21.1786274,36.1696696 C20.701249,35.9620881 20.2908754,35.6271545 19.9928993,35.2019169 C18.9181508,33.9435479 17.7587074,32.7171466 16.7569716,31.4006543 C15.7932025,30.1306606 16.2546435,29.3343716 17.2330151,28.2503724 C19.4492298,25.7375335 21.7997476,23.3452068 24.2743705,21.0837717 C25.462401,19.9764269 26.7487881,18.9784414 28.1177648,18.1020473 Z" id="Path" stroke="none" fill="#803620" fill-rule="nonzero" transform="translate(34.661175, 22.847670) rotate(-9.000000) translate(-34.661175, -22.847670) "></path>
                                </g>
                            </g>
                        </g>
                    </g>
                    <g id="Group-6">
                        <circle id="Oval" stroke="#FFFFFF" stroke-width="2" fill="#B4083A" cx="162" cy="45" r="8"></circle>
                        <mask id="mask-11" fill="white">
                            <use xlink:href="#path-10"></use>
                        </mask>
                        <g id="Mask"></g>
                        <path d="M-89,13 L139,13 C140.656854,13 142,14.3431458 142,16 L142,47 C142,48.6568542 140.656854,50 139,50 L-89,50 C-90.6568542,50 -92,48.6568542 -92,47 L-92,16 C-92,14.3431458 -90.6568542,13 -89,13 Z" id="Rectangle" stroke="#DEDEDE" stroke-width="4" stroke-linecap="round" stroke-linejoin="bevel" stroke-dasharray="7,9" mask="url(#mask-11)"></path>
                    </g>
                </g>
            </g>
        </g>
    </g>
</svg>