<?xml version="1.0" encoding="UTF-8"?>
<svg width="190px" height="96px" viewBox="0 0 190 96" version="1.1" xmlns="http://www.w3.org/2000/svg" xmlns:xlink="http://www.w3.org/1999/xlink">
    <title>ct-uploads</title>
    <defs>
        <circle id="path-1" cx="28" cy="68" r="28"></circle>
        <ellipse id="path-3" cx="52" cy="52" rx="51.75" ry="52"></ellipse>
        <filter x="-9.2%" y="-14.7%" width="118.3%" height="127.5%" filterUnits="objectBoundingBox" id="filter-5">
            <feOffset dx="0" dy="0" in="SourceAlpha" result="shadowOffsetOuter1"></feOffset>
            <feGaussianBlur stdDeviation="1.5" in="shadowOffsetOuter1" result="shadowBlurOuter1"></feGaussianBlur>
            <feColorMatrix values="0 0 0 0 0   0 0 0 0 0   0 0 0 0 0  0 0 0 0.1 0" type="matrix" in="shadowBlurOuter1" result="shadowMatrixOuter1"></feColorMatrix>
            <feMerge>
                <feMergeNode in="shadowMatrixOuter1"></feMergeNode>
                <feMergeNode in="SourceGraphic"></feMergeNode>
            </feMerge>
        </filter>
        <linearGradient x1="-8.81421099%" y1="66.1019533%" x2="441.198087%" y2="-77.8206366%" id="linearGradient-6">
            <stop stop-color="#010101" stop-opacity="0" offset="0%"></stop>
            <stop stop-color="#010101" offset="95%"></stop>
        </linearGradient>
        <linearGradient x1="67.4590428%" y1="23.8054348%" x2="-27.5870544%" y2="166.507508%" id="linearGradient-7">
            <stop stop-color="#010101" stop-opacity="0" offset="0%"></stop>
            <stop stop-color="#010101" offset="100%"></stop>
        </linearGradient>
        <path d="M2.73874621,0.00928692808 L13.3242501,0.00190211869 C14.8279771,0.000853067277 16.0478392,1.21901428 16.0488882,2.72274134 C16.0488891,2.72400334 16.0488891,2.72526534 16.0488882,2.72652734 L16.0328704,25.8443418 C16.0318295,27.3465906 14.8142799,28.564146 13.3120312,28.565194 L2.72652733,28.5725788 C1.22280027,28.5736279 0.00293821149,27.3554667 0.00188916008,25.8517396 C0.00188827967,25.8504776 0.00188827667,25.8492156 0.00188915108,25.8479536 L0.0179069784,2.7301391 C0.0189478537,1.22789035 1.23649746,0.0103349482 2.73874621,0.00928692808 Z" id="path-8"></path>
        <rect id="path-10" x="0" y="0" width="170" height="25"></rect>
    </defs>
    <g id="Symbols" stroke="none" stroke-width="1" fill="none" fill-rule="evenodd">
        <g id="chart/efficacy-copy-3" transform="translate(-50.000000, -31.000000)">
            <g id="CloseContacts" transform="translate(21.000000, 18.000000)">
                <g id="ct-uploads" transform="translate(29.000000, 13.000000)">
                    <mask id="mask-2" fill="white">
                        <use xlink:href="#path-1"></use>
                    </mask>
                    <g id="Mask"></g>
                    <g id="Visual/contact-tracing" mask="url(#mask-2)">
                        <g transform="translate(-24.000000, 17.000000)">
                            <mask id="mask-4" fill="white">
                                <use xlink:href="#path-3"></use>
                            </mask>
                            <use id="Mask" stroke="none" fill="#26D349" fill-rule="evenodd" opacity="0.0994698661" xlink:href="#path-3"></use>
                            <g id="Group-4" filter="url(#filter-5)" stroke="none" stroke-width="1" fill="none" fill-rule="evenodd" mask="url(#mask-4)">
                                <g transform="translate(47.074300, 71.452488) rotate(-50.000000) translate(-47.074300, -71.452488) translate(11.574300, 45.952488)">
                                    <path d="M66.4310143,5.8468603 C65.739426,7.16345264 63.667567,7.01456969 62.7638529,8.16476345 C62.3715654,8.65812067 62.2698612,9.33247284 62.1826862,9.96303591 C61.7816812,12.9056636 61.3661471,15.8395334 60.9535188,18.7734033 C62.0838879,19.4711097 63.2578445,20.23304 63.8390111,21.4387 C64.4201778,22.6443599 64.051137,24.3579735 62.7987229,24.7987838 C61.4446046,25.2366748 60.2038138,23.9989028 58.9949872,23.2457303 C57.5856581,22.346594 55.3597899,22.2473387 54.5635916,23.7303297 C55.3597899,24.203252 56.176329,24.7082863 56.7022848,25.4818938 C57.2282407,26.2555012 57.3851556,27.3677444 56.8127065,28.1092399 C55.9758266,29.1543398 54.3398425,28.8157041 53.0990517,28.2989927 C51.8582609,27.7822813 50.3704743,27.2305386 49.2953161,28.0420966 C50.130684,28.6896681 50.8274495,29.4998672 51.3439285,30.4242238 C51.6548526,30.9642894 51.8786018,31.6590765 51.5328076,32.1757879 C51.1870135,32.6924993 50.4256852,32.6924993 49.7893077,32.5786476 C46.8486045,32.0298242 44.1839555,30.0505568 41.231629,29.9162702 C41.052624,29.904605 40.8730548,29.904605 40.6940499,29.9162702 C37.6400192,30.0067677 35.1235676,32.1757879 32.4937886,33.7492763 C32.3901868,33.815525 32.2824483,33.8750065 32.1712411,33.927352 C30.172751,35.1047196 28.0072283,35.9690288 25.7493498,36.4904741 C24.5724874,36.7619665 23.3985308,36.5692945 22.2478208,36.916688 C20.9372901,37.3107899 19.8650376,38.15446 18.8015027,39.0185649 C15.6902517,41.5723902 6.88671781,47.9656706 4.15616145,50.9423722 C3.33366235,47.7368055 1.7332094,44.2299813 0.942853025,41.725756 C0.228173116,39.4613098 0.26726518,38.2305824 0.490802632,34.9160752 C1.26084842,34.5803588 7.52977576,30.5263983 7.59660992,30.4826092 C10.6380486,28.6609826 13.6882049,26.8471407 16.7470786,25.0410835 C16.9716482,24.8866369 17.2214689,24.773006 17.4851602,24.705367 C18.3365694,24.5594033 18.9845702,25.3680421 19.4320685,26.1328917 C20.9314784,23.9405174 23.0788891,22.2093882 25.2844165,20.7497514 C27.7224105,19.1091197 30.2853554,17.6699179 32.8395828,16.219039 C35.187496,14.8820117 37.5470325,13.5566616 39.8978516,12.216715 C42.5131014,10.7570783 45.1661271,9.25073318 47.9964086,8.21731037 C50.4140618,7.34152832 52.95376,6.80146273 55.3249199,5.80015192 C57.7425731,4.79884112 59.4424855,3.84423869 62.0083362,3.41802476 C63.005037,3.26038399 64.6235861,3.04727703 65.4779011,3.56398843 C66.332216,4.08069984 66.890136,4.94480479 66.4310143,5.8468603 Z" id="Path" stroke="none" fill="#F3B071" fill-rule="nonzero"></path>
                                    <path d="M43.4435286,28.5068751 C43.2647136,29.2042531 42.3648703,29.4650373 41.6207691,29.5558722 C41.4304603,29.6174276 41.2738073,29.7564221 41.1881522,29.9397231 C41.0104852,29.9280145 40.8322582,29.9280145 40.6545912,29.9397231 C37.6233883,30.0305581 35.1257464,32.2076666 32.515624,33.7870226 C32.4127966,33.8535184 32.3058634,33.9132217 32.1954874,33.9657623 C31.9618743,33.2009907 31.9734107,31.0121615 33.5596729,25.9810776 C33.8480843,25.1020298 34.1711049,23.929966 34.4249069,23.0802197 C34.5729226,22.5176389 34.7899718,21.976197 35.0709482,21.468632 C36.0627272,19.908038 37.5903508,18.7779721 39.3567403,18.2981994 C39.6792545,18.1671511 40.0409738,18.1788344 40.3546435,18.3304312 C40.6892006,18.5326122 40.7324623,18.9955774 40.622866,19.3589172 C40.5132697,19.7222569 40.2767724,20.0445745 40.1556397,20.4079143 C39.6566881,21.7704384 40.7324623,23.1358928 41.565971,24.3431185 C42.254856,25.3156665 42.8252574,26.3694071 43.2647136,27.4813193 C43.4277566,27.7959907 43.4902574,28.1544509 43.4435286,28.5068751 Z" id="Path" stroke="none" fill="url(#linearGradient-6)" fill-rule="nonzero"></path>
                                    <path d="M46.6185263,0.798784723 L57.7900167,0.816107091 C59.4685178,0.818709753 60.8285637,2.17875446 60.8311678,3.85725558 L60.8728004,30.6919063 C60.8754102,32.3740961 59.5138416,33.739896 57.8316519,33.7425058 C57.8285024,33.7425107 57.825353,33.7425107 57.8222035,33.7425058 L46.6507131,33.7251835 C44.972212,33.7225808 43.6121661,32.3625361 43.609562,30.684035 L43.5679294,3.84938423 C43.5653196,2.16719448 44.9268881,0.801394556 46.6090779,0.798784727 C46.6122274,0.798779841 46.6153768,0.798779839 46.6185263,0.798784723 Z" id="Rectangle" stroke="none" fill="#2E2E2E" fill-rule="nonzero" transform="translate(52.220365, 17.270645) rotate(50.070000) translate(-52.220365, -17.270645) "></path>
                                    <path d="M46.6185263,0.798784723 L57.7900167,0.816107091 C59.4685178,0.818709753 60.8285637,2.17875446 60.8311678,3.85725558 L60.8728004,30.6919063 C60.8754102,32.3740961 59.5138416,33.739896 57.8316519,33.7425058 C57.8285024,33.7425107 57.825353,33.7425107 57.8222035,33.7425058 L46.6507131,33.7251835 C44.972212,33.7225808 43.6121661,32.3625361 43.609562,30.684035 L43.5679294,3.84938423 C43.5653196,2.16719448 44.9268881,0.801394556 46.6090779,0.798784727 C46.6122274,0.798779841 46.6153768,0.798779839 46.6185263,0.798784723 Z" id="Rectangle" stroke="#222222" stroke-width="0.75" fill="url(#linearGradient-7)" fill-rule="nonzero" transform="translate(52.220365, 17.270645) rotate(50.070000) translate(-52.220365, -17.270645) "></path>
                                    <path d="M47.1653824,2.75012463 L57.7159358,2.76648418 C59.2163641,2.76881073 60.4321222,3.98456779 60.4344501,5.48499609 L60.4700386,28.4239479 C60.4723716,29.9276735 59.2552523,31.1485752 57.7515267,31.1509082 C57.7487114,31.1509125 57.745896,31.1509125 57.7430807,31.1509082 L47.1925273,31.1345486 C45.692099,31.1322221 44.4763409,29.916465 44.474013,28.4160367 L44.4384244,5.4770849 C44.4360915,3.97335928 45.6532107,2.75245759 47.1569363,2.75012463 C47.1597517,2.75012027 47.162567,2.75012026 47.1653824,2.75012463 Z" id="Rectangle" stroke="none" fill="#FFFBFF" fill-rule="nonzero" transform="translate(52.454232, 16.950516) rotate(50.070000) translate(-52.454232, -16.950516) "></path>
                                    <g id="Group-2" stroke="none" stroke-width="1" fill="none" fill-rule="evenodd" transform="translate(52.599583, 18.104496) rotate(50.000000) translate(-52.599583, -18.104496) translate(43.599583, 3.104496)">
                                        <g id="Group" transform="translate(0.022011, 0.094156)">
                                            <mask id="mask-9" fill="white">
                                                <use xlink:href="#path-8"></use>
                                            </mask>
                                            <use id="Rectangle" fill="#FFFBFF" fill-rule="nonzero" xlink:href="#path-8"></use>
                                            <rect id="Rectangle" fill="#EEEEEF" mask="url(#mask-9)" x="1.18221328" y="17.0010011" width="13.7924883" height="3.95372119"></rect>
                                            <rect id="Rectangle-Copy-2" fill="#3A7B7F" mask="url(#mask-9)" x="1.18221328" y="22.1408386" width="13.7924883" height="3.95372119"></rect>
                                            <rect id="Rectangle-Copy-3" fill="#EEEEEF" mask="url(#mask-9)" x="1.18221328" y="27.2806762" width="13.7924883" height="3.95372119"></rect>
                                            <rect id="Rectangle" fill="#FFF16F" mask="url(#mask-9)" x="4.20006531e-15" y="0" width="16.0505157" height="3.55834907"></rect>
                                            <polygon id="Path-3" fill="#FFEA0D" mask="url(#mask-9)" points="0 3.55834907 12.1234587 0 16.0507774 1.77917453 16.0507774 0 0 0"></polygon>
                                            <rect id="Rectangle" fill="#EEEEEF" mask="url(#mask-9)" x="0.78814219" y="4.34909331" width="14.1865594" height="2.37223271" rx="1.18611636"></rect>
                                        </g>
                                        <rect id="Rectangle" fill="#EEEEEF" x="0.964425787" y="8.99291125" width="14.3617021" height="7.21554117"></rect>
                                    </g>
                                    <path d="M27.4749772,17.3360028 C28.9565209,16.4779222 30.5032729,15.7365247 32.1010688,15.1185996 C35.1150376,13.8718552 38.1319269,12.6192985 41.2539546,11.6835136 C42.2031211,11.3928972 43.1581287,11.1429671 44.1131362,10.8901308 L52.3694247,8.68725841 C52.6293503,9.50970286 52.2509409,11.6408749 51.7515333,12.3441666 C50.1932338,14.5388007 48.6249265,15.1772347 46.0986426,16.1266346 C45.3831171,16.3940017 43.9554286,16.3914995 43.347962,16.8652042 C42.9063202,17.259567 42.5140865,17.7054924 42.179757,18.1933212 C40.3544368,20.5182525 37.682168,22.2881065 36.6307835,25.0460562 C36.2774015,25.9614979 36.1138528,26.9612184 35.5910811,27.7894752 C35.0069786,28.6991045 34.0724147,29.3035867 33.1582943,29.876101 C29.6536794,32.0818796 26.0439261,34.3109074 22.013619,35.3338772 C21.5375586,35.4956819 21.0251533,35.5198664 20.5358398,35.4036251 C20.0584614,35.1960437 19.6480878,34.8611101 19.3501117,34.4358725 C18.2753632,33.1775034 17.1159197,31.9511022 16.114184,30.6346098 C15.1504149,29.3646161 15.6118559,28.5683271 16.5902275,27.4843279 C18.8064421,24.9714891 21.1569599,22.5791624 23.6315829,20.3177272 C24.8196133,19.2103825 26.1060005,18.2123969 27.4749772,17.3360028 Z" id="Path" stroke="none" fill="#F3B071" fill-rule="nonzero" transform="translate(34.018387, 22.081625) rotate(-9.000000) translate(-34.018387, -22.081625) "></path>
                                </g>
                            </g>
                        </g>
                    </g>
                    <g id="Group-5" transform="translate(20.000000, 0.000000)">
                        <path d="M7.98981205,27.1014321 C8.38477244,26.9119334 8.76619359,27.0026756 9.11676555,27.2228258 L9.11676555,27.2228258 L15.6832602,36.6284227 C15.8573909,36.8608022 15.961117,37.1317846 15.9909792,37.4107618 C16.0219909,37.7004771 15.9733316,37.9987599 15.8414192,38.27122 C15.7091663,38.5443833 15.5049016,38.7675706 15.2581562,38.9225757 C15.0106788,39.0780407 14.7204599,39.1649533 14.4167574,39.1650076 L14.4167574,39.1650076 L10.1666832,39.1650076 L10.1666832,46.4146924 C10.1666832,46.8520771 9.98973868,47.247904 9.70412175,47.5344835 C9.41728909,47.8222829 9.02095312,48 8.58334159,48 L8.58334159,48 L7.41665841,48 C6.97904688,48 6.58271091,47.8222829 6.29587825,47.5344835 C6.01026132,47.247904 5.83331683,46.8520771 5.83331683,46.4146924 L5.83331683,46.4146924 L5.83331683,39.1650076 L1.58306387,39.1650076 C1.27954011,39.1649533 0.98932116,39.0780407 0.74184381,38.9225757 C0.495098375,38.7675706 0.290833713,38.5443833 0.15858084,38.27122 C0.0266684468,37.9987599 -0.0219909322,37.7004771 0.00902076883,37.4107618 C0.0400540439,37.1208449 0.150857636,36.8395622 0.337409305,36.6014439 L0.337409305,36.6014439 L6.76412261,28.394423 C6.89979637,28.2301787 7.06470798,28.0968845 7.24797389,27.9994726 L7.335,27.958 C7.40862347,27.7691636 7.45794927,27.6552397 7.49859643,27.5787053 L7.52205942,27.5369844 C7.67401355,27.2833797 7.85701878,27.1651452 7.98981205,27.1014321 Z" id="Path" stroke="#FFFFFF" stroke-width="2" fill-rule="nonzero"></path>
                        <path d="M8.45850649,28.0132288 C8.34380226,27.8788878 8.1763052,28.8120088 8,28.8120088 C7.8236948,28.8120088 7.65619774,28.8893318 7.54149351,29.0236728 L1.12473607,37.2179798 C0.98672353,37.3941418 0.961059068,37.6339025 1.05864049,37.8354533 C1.1562219,38.037004 1.35992131,38.1649677 1.58324255,38.1650076 L6.83331683,38.1650076 L6.83331683,46.4146924 C6.83331683,46.7379488 7.09448775,47 7.41665841,47 L8.58334159,47 C8.90551225,47 9.16668317,46.7379488 9.16668317,46.4146924 L9.16668317,38.1650076 L14.4167574,38.1650076 C14.6400787,38.1649677 14.8437781,38.037004 14.9413595,37.8354533 C15.0389409,37.6339025 15.0132765,37.3941418 14.8752639,37.2179798 L8.45850649,28.0132288 Z" id="Path" fill="#23C143" fill-rule="nonzero"></path>
                        <g id="Rectangle">
                            <mask id="mask-11" fill="white">
                                <use xlink:href="#path-10"></use>
                            </mask>
                            <g id="Mask"></g>
                            <path d="M12,13 L192,13 C193.656854,13 195,14.3431458 195,16 L195,47 C195,48.6568542 193.656854,50 192,50 L12,50 C10.3431458,50 9,48.6568542 9,47 L9,16 C9,14.3431458 10.3431458,13 12,13 Z" stroke="#DEDEDE" stroke-width="4" stroke-linecap="round" stroke-linejoin="bevel" stroke-dasharray="7,9" mask="url(#mask-11)"></path>
                        </g>
                    </g>
                </g>
            </g>
        </g>
    </g>
</svg>